<?xml version="1.0" encoding="utf-8"?>
<!-- Generator: Adobe Illustrator 23.0.1, SVG Export Plug-In . SVG Version: 6.00 Build 0)  -->
<svg version="1.1" id="Capa_1" xmlns="http://www.w3.org/2000/svg" xmlns:xlink="http://www.w3.org/1999/xlink" x="0px" y="0px"
	 viewBox="0 0 37 37" style="enable-background:new 0 0 37 37;" xml:space="preserve">
<style type="text/css">
	.st0{fill:#FFFFFF;}
</style>
<g>
	<path class="st0" d="M33.2,37l0.9-2.1L33,7.5h-7.9c-1-4.4-3.4-7.5-6.3-7.5c-2.9,0-5.4,3.1-6.3,7.5H4.8l-1.9,28L4.1,37L33.2,37
		L33.2,37z M22.9,11.7c0,0.7,0.6,1.3,1.3,1.3c0.7,0,1.3-0.6,1.3-1.3c0-0.2,0-0.4,0-0.6c0.5,0.4,0.8,1,0.8,1.6c0,1.1-0.9,2.1-2.1,2.1
		c-1.1,0-2.1-0.9-2.1-2.1c0-0.6,0.3-1.2,0.7-1.5C22.9,11.3,22.9,11.5,22.9,11.7z M18.8,2.6c1.4,0,2.9,1.9,3.6,4.8h-7.2
		C15.9,4.5,17.4,2.6,18.8,2.6z M12,11.1c0,0.2,0,0.4,0,0.6c0,0.7,0.6,1.3,1.3,1.3c0.7,0,1.3-0.6,1.3-1.3c0-0.2,0-0.4,0-0.6
		c0.5,0.4,0.8,1,0.8,1.6c0,1.1-0.9,2.1-2.1,2.1c-1.1,0-2.1-0.9-2.1-2.1C11.3,12.1,11.6,11.5,12,11.1z"/>
</g>
</svg>
