<svg id="Camada_1" data-name="Camada 1" xmlns="http://www.w3.org/2000/svg" viewBox="0 0 3335.23 1217.03"><defs><style>.cls-1{fill:#fff;}</style></defs><title>tnw_vetor</title><path class="cls-1" d="M1510.8,877.47c0,7.8-1.17,16-2.73,25l-23,115.49h-48.77l22.63-114.32a81.88,81.88,0,0,0,1.56-16c0-24.19-13.26-37.84-41.75-37.84-35.5,0-60.08,19.51-68.28,60.08l-21.85,108.08h-48.77l41.36-208.35h46.43l-4.68,23c19.12-17.17,44.09-25.36,71.79-25.36C1480.75,807.24,1510.8,831.82,1510.8,877.47Z"/><path class="cls-1" d="M2805.15,928.19H2639.71c.78,33.17,19.9,51.11,60.09,51.11,23.8,0,45.65-7.8,60.08-21.45l20.3,33.94c-21.85,19.51-53.46,28.87-85.45,28.87-62.82,0-102.62-36.28-102.62-91.69,0-70.62,50.33-121.73,120.17-121.73,57.75,0,96,34.33,96,91.3A141.74,141.74,0,0,1,2805.15,928.19ZM2644,895.81h119.4c.39-32-21.07-49.56-53.46-49.56C2676.78,846.25,2653,865.37,2644,895.81Z"/><path class="cls-1" d="M3152.72,898.54c0,71-50.73,122.12-117,122.12-34,0-59.7-12.1-73-35.89l-6.62,33.16h-46.44l57.75-289.51h48.76l-19.89,100.67c17.16-14.05,39-21.85,64.77-21.85C3112.14,807.24,3152.72,840.79,3152.72,898.54Zm-49.16,2.34c0-32.39-19.9-52.28-55-52.28-41.36,0-71.79,32-71.79,78,0,32.39,19.89,52.28,55,52.28C3073.12,978.91,3103.56,946.92,3103.56,900.88Z"/><path class="cls-1" d="M1872,809.58l-41.36,208.35h-46.42l4.29-21.45c-17.56,15.6-40.58,24.18-67.89,24.18-51.12,0-91.69-33.95-91.69-91.69,0-71,50.72-121.73,117.43-121.73,32.39,0,57,10.92,71,33.16l5.86-30.82Zm-67.11,91.3c0-32.39-19.9-52.28-55-52.28-41.36,0-71.8,32-71.8,78,0,32.39,19.9,52.28,55,52.28C1774.49,978.91,1804.92,946.92,1804.92,900.88Z"/><path class="cls-1" d="M2527.42,809.58l-116.27,208.35h-48l-28.09-143.58-81.56,143.58H2206.3l-38.22-208.35h44.47l26.53,153.33,87-153.33h41.74l27.71,153.33,85.84-153.33Z"/><path class="cls-1" d="M1680.1,194.58H1296.65a74.9,74.9,0,0,0-73.41,60l-13.33,65.92H1351l-70.91,355.92h67.66a115.57,115.57,0,0,0,113.33-93l52.38-262.94h141.13Z"/><path class="cls-1" d="M1892.75,164H1859a85.83,85.83,0,0,0-62.24,26.73l-67.9,71.47h88.37l58.31-47.26,44.8,47.26h83.47l-38.11-58.62A87,87,0,0,0,1892.75,164Z"/><path class="cls-1" d="M1859.36,564.37a145.34,145.34,0,0,1-34,4c-40.61,0-65.39-12.4-72.28-44.06h263.67a279.14,279.14,0,0,0,8.26-65.4c0-97.06-70.91-165.91-191.38-165.91-140.44,0-233.38,92.25-233.38,216.16,0,106.71,83.3,174.17,207.22,174.17,57.13,0,112.9-11.7,164.53-46.81l-25.85-37.67C1926.93,570.8,1892.45,556.4,1859.36,564.37ZM1826.79,399c33,0,55.76,18.6,55.76,50.26H1759.32C1769.65,420.38,1791,399,1826.79,399Z"/><path class="cls-1" d="M2513.19,299.91h-170l-74.35,79.85-21.21-42.42A67.7,67.7,0,0,0,2187,299.91H2065.72l97.75,184.49L1975.54,676.47h175.54l73.66-80.55,14.19,28.62a93.42,93.42,0,0,0,83.7,51.93H2429.9l-99.14-186.56Z"/><path class="cls-1" d="M2706.67,320.55,2728,215.23h-87.26a83.55,83.55,0,0,0-81.89,67l-7.78,38.36a63,63,0,0,0-61.75,50.62l-12.59,63h52.31l-19.27,95a180.24,180.24,0,0,0-4.13,37.17c0,75,53.7,117,137.68,117,36.49,0,73-6.19,101.9-22l-17.91-104.64c-11.7,5.51-22,9-34.43,9-17.89,0-28.91-8.25-28.91-26.16a67.69,67.69,0,0,1,1.39-11L2684,434.14a94,94,0,0,0,92.22-75.59l7.61-38Z"/><path class="cls-1" d="M2950.3,287.29c46.14,0,76.36-27.57,76.36-67.33,0-31.82-26-54.62-67.87-54.62-46.13,0-76.35,28.11-76.35,65.22C2882.44,262.37,2908.42,287.29,2950.3,287.29Z"/><path class="cls-1" d="M2910,319.7a72,72,0,0,0-70.64,57.95L2779.7,676.47h73a99.84,99.84,0,0,0,97.9-80.32l55.25-276.45Z"/><path class="cls-1" d="M3179.27,165.67a90.15,90.15,0,0,0-88.41,72.51l-87.42,438.29h83.69a87.66,87.66,0,0,0,86-70.51l87.81-440.29Z"/><path class="cls-1" d="M193.52,1054.8C123.5,1019,80,947.33,80,867.65,80,752,172.14,658,285.4,658A201.6,201.6,0,0,1,342,666.23L358.35,671l2-16.94C373.5,540.32,475.84,454.54,598.38,454.54c132.1,0,239.56,100.44,239.56,223.9a210.49,210.49,0,0,1-8.61,58.65l-5.51,19,19.77-.6A31.54,31.54,0,0,0,848,755c73.31,0,136.35,50.9,153.3,123.79a34.78,34.78,0,0,0,34.09,26.88A43,43,0,0,0,1077,851.47c-21.78-79.26-82.18-141.85-159.11-165.86q.09-3.6.09-7.18c0-151.73-121.13-281.64-278.12-301.17V358.51c70.31-15.9,111.87-67.92,111.87-141.25,0-83.43-59.81-146.35-139.14-146.35-82.24,0-151.72,68.24-151.72,149a44.68,44.68,0,0,0,21.4,37.77,44.57,44.57,0,0,0,67.42-37.77c0-32.24,29.74-60.52,63.65-60.52,30.29,0,51.44,23.8,51.44,57.87s-26.74,57.87-65,57.87c-24.22,0-43.2,19.43-43.2,44.23V377.2c-120.22,14.87-220.27,92.21-259.88,201-3.74-.16-7.48-.23-11.21-.23C128,578,0,707.93,0,867.66,0,978.51,64.59,1081.08,164.55,1129a36.43,36.43,0,0,0,15.8,3.61,37.48,37.48,0,0,0,36.51-29.9A44.11,44.11,0,0,0,193.52,1054.8Z"/></svg>