<svg id="Camada_1" data-name="Camada 1" xmlns="http://www.w3.org/2000/svg" xmlns:xlink="http://www.w3.org/1999/xlink" viewBox="0 0 2602.24 1932.39"><defs><style>.cls-1{fill:#f2cf4f;}.cls-2{fill:url(#linear-gradient);}.cls-3{fill:url(#linear-gradient-2);}.cls-4{fill:url(#linear-gradient-3);}.cls-5{fill:url(#linear-gradient-4);}.cls-6{fill:url(#linear-gradient-5);}.cls-7{fill:url(#linear-gradient-6);}.cls-8{fill:url(#linear-gradient-7);}.cls-9{fill:url(#linear-gradient-8);}.cls-10{fill:#4bb1e0;}</style><linearGradient id="linear-gradient" x1="662.5" y1="1545.6" x2="662.5" y2="1082.12" gradientUnits="userSpaceOnUse"><stop offset="0" stop-color="#76aadb"/><stop offset="1" stop-color="#009bdb"/></linearGradient><linearGradient id="linear-gradient-2" x1="1067.72" y1="1147.14" x2="1067.72" y2="1052.7" xlink:href="#linear-gradient"/><linearGradient id="linear-gradient-3" x1="1016.12" y1="1552.22" x2="1016.12" y2="1176.8" xlink:href="#linear-gradient"/><linearGradient id="linear-gradient-4" x1="1431.32" y1="1545.6" x2="1431.32" y2="1183.42" xlink:href="#linear-gradient"/><linearGradient id="linear-gradient-5" x1="1802.49" y1="1552.22" x2="1802.49" y2="1101.98" xlink:href="#linear-gradient"/><linearGradient id="linear-gradient-6" x1="2114.38" y1="1171.29" x2="2114.38" y2="1054" xlink:href="#linear-gradient"/><linearGradient id="linear-gradient-7" x1="2054.96" y1="1545.6" x2="2054.96" y2="1202.46" xlink:href="#linear-gradient"/><linearGradient id="linear-gradient-8" x1="2285.22" y1="1545.6" x2="2285.22" y2="1054.31" xlink:href="#linear-gradient"/></defs><title>tnw_vetor</title><path class="cls-1" d="M725.78,1738.92c0,7.5-1.13,15.39-2.62,24L701,1874H654.1l21.77-110a78.5,78.5,0,0,0,1.5-15.39c0-23.27-12.76-36.4-40.16-36.4-34.14,0-57.79,18.76-65.67,57.79l-21,104H503.62l39.78-200.39h44.65l-4.5,22.13c18.39-16.51,42.41-24.39,69.05-24.39C696.88,1671.37,725.78,1695,725.78,1738.92Z"/><path class="cls-1" d="M1970.69,1787.7H1811.57c.75,31.9,19.14,49.16,57.8,49.16,22.88,0,43.9-7.5,57.78-20.63l19.52,32.64c-21,18.77-51.42,27.78-82.18,27.78-60.43,0-98.7-34.9-98.7-88.19,0-67.93,48.41-117.09,115.58-117.09,55.54,0,92.32,33,92.32,87.82A136.06,136.06,0,0,1,1970.69,1787.7Zm-155-31.14h114.85c.37-30.77-20.27-47.66-51.42-47.66C1847.22,1708.9,1824.33,1727.29,1815.69,1756.56Z"/><path class="cls-1" d="M2305,1759.19c0,68.29-48.79,117.46-112.57,117.46-32.66,0-57.43-11.64-70.19-34.53l-6.37,31.9h-44.66l55.54-278.45h46.9l-19.14,96.82c16.51-13.51,37.53-21,62.31-21C2266,1671.37,2305,1703.64,2305,1759.19Zm-47.28,2.25c0-31.15-19.14-50.29-52.92-50.29-39.78,0-69.05,30.77-69.05,75,0,31.16,19.14,50.29,52.92,50.29C2228.43,1836.49,2257.7,1805.72,2257.7,1761.44Z"/><path class="cls-1" d="M1073.22,1673.63,1033.44,1874H988.78l4.13-20.64c-16.89,15-39,23.27-65.3,23.27-49.16,0-88.18-32.66-88.18-88.19,0-68.3,48.78-117.09,113-117.09,31.15,0,54.79,10.51,68.3,31.9l5.63-29.64Zm-64.55,87.81c0-31.15-19.14-50.29-52.91-50.29-39.78,0-69,30.77-69,75,0,31.16,19.13,50.29,52.91,50.29C979.4,1836.49,1008.67,1805.72,1008.67,1761.44Z"/><path class="cls-1" d="M1703.57,1673.63,1591.74,1874h-46.16l-27-138.1L1440.13,1874h-45.41L1358,1673.63h42.78l25.51,147.47,83.7-147.47h40.15l26.64,147.47,82.56-147.47Z"/><path class="cls-2" d="M888.62,1082.12H519.82a72,72,0,0,0-70.61,57.75l-12.82,63.41H572.13l-68.2,342.32H569a111.15,111.15,0,0,0,109-89.43l50.38-252.89H864.12Z"/><path class="cls-3" d="M1093.15,1052.7h-32.49a82.53,82.53,0,0,0-59.85,25.7l-65.31,68.74h85l56.08-45.45,43.09,45.45h80.28l-36.65-56.37A83.67,83.67,0,0,0,1093.15,1052.7Z"/><path class="cls-4" d="M1061,1437.78a140,140,0,0,1-32.65,3.86c-39.06,0-62.9-11.91-69.52-42.37h253.59a267.66,267.66,0,0,0,8-62.9c0-93.36-68.2-159.57-184.07-159.57-135.08,0-224.46,88.72-224.46,207.9,0,102.63,80.12,167.52,199.3,167.52,54.95,0,108.59-11.26,158.24-45L1144.55,1471C1126,1444,1092.86,1430.12,1061,1437.78Zm-31.32-159c31.78,0,53.63,17.88,53.63,48.34H964.81C974.74,1299.29,995.26,1278.76,1029.7,1278.76Z"/><path class="cls-5" d="M1689.88,1183.42H1526.34l-71.51,76.8-20.4-40.79a65.12,65.12,0,0,0-58.25-36H1259.51l94,177.44L1172.77,1545.6h168.84l70.84-77.47,13.65,27.52a89.85,89.85,0,0,0,80.5,49.95h103.17l-95.35-179.44Z"/><path class="cls-6" d="M1876,1203.28,1896.5,1102h-83.92a80.36,80.36,0,0,0-78.76,64.4l-7.48,36.9A60.57,60.57,0,0,0,1667,1252l-12.12,60.56h50.32l-18.54,91.37a173.85,173.85,0,0,0-4,35.76c0,72.17,51.64,112.56,132.42,112.56,35.1,0,70.18-6,98-21.19l-17.22-100.64c-11.25,5.3-21.18,8.61-33.11,8.61-17.21,0-27.81-7.94-27.81-25.16a66.36,66.36,0,0,1,1.33-10.6l17.88-90.71a90.45,90.45,0,0,0,88.7-72.71l7.31-36.54Z"/><path class="cls-7" d="M2110.3,1171.29c44.37,0,73.44-26.52,73.44-64.76,0-30.6-25-52.53-65.28-52.53-44.37,0-73.44,27-73.44,62.72C2045,1147.32,2070,1171.29,2110.3,1171.29Z"/><path class="cls-8" d="M2071.56,1202.46a69.29,69.29,0,0,0-68,55.74l-57.4,287.4h70.2a96,96,0,0,0,94.16-77.25l53.14-265.89Z"/><path class="cls-9" d="M2330.51,1054.31a86.7,86.7,0,0,0-85,69.74l-84.08,421.55h80.48a84.3,84.3,0,0,0,82.68-67.81L2409,1054.31Z"/><path class="cls-10" d="M383,1294.24c-89.09-45.49-144.44-136.72-144.44-238.1,0-147.09,117.24-266.76,261.33-266.76a256.12,256.12,0,0,1,72,10.51L592.72,806l2.49-21.56c16.77-144.73,147-253.86,302.88-253.86,168.06,0,304.77,127.78,304.77,284.86A267.89,267.89,0,0,1,1191.92,890l-7,24.16,25.14-.75a41.29,41.29,0,0,0,5.6-.63c93.28,0,173.48,64.76,195,157.49a44.22,44.22,0,0,0,43.37,34.2,54.47,54.47,0,0,0,43.62-21.63,53.91,53.91,0,0,0,9.25-47.32c-27.69-100.83-104.54-180.46-202.42-211q.12-4.57.12-9.13c0-193-154.11-358.32-353.85-383.17V408.39c89.46-20.23,142.34-86.41,142.34-179.7,0-106.15-76.1-186.2-177-186.2-104.63,0-193,86.81-193,189.57a56.83,56.83,0,0,0,27.23,48.05,56.7,56.7,0,0,0,85.77-48.05c0-41,37.84-77,81-77,38.53,0,65.45,30.28,65.45,73.64s-34,73.62-82.74,73.62c-30.81,0-55,24.72-55,56.27v73.59C691.86,451.08,564.57,549.48,514.18,687.91q-7.15-.28-14.27-.29c-200.22,0-363.11,165.32-363.11,368.53,0,141,82.18,271.53,209.35,332.47a46.43,46.43,0,0,0,20.1,4.59,47.65,47.65,0,0,0,46.45-38C417.71,1330.78,405.5,1305.72,383,1294.24Z"/></svg>