<?xml version="1.0" encoding="utf-8"?>
<!-- Generator: Adobe Illustrator 23.0.1, SVG Export Plug-In . SVG Version: 6.00 Build 0)  -->
<svg version="1.1" id="Camada_1" xmlns="http://www.w3.org/2000/svg" xmlns:xlink="http://www.w3.org/1999/xlink" x="0px" y="0px"
	 viewBox="0 0 2602.2 1932.4" style="enable-background:new 0 0 2602.2 1932.4;" xml:space="preserve">
<style type="text/css">
	.st0{fill:#E9BC43;}
	.st1{fill:#2FA2CC;}
	.st2{fill:none;stroke:#E9BC43;stroke-width:5;stroke-miterlimit:10;}
	.st3{fill:none;stroke:#2FA2CC;stroke-width:5;stroke-miterlimit:10;}
	.st4{fill:#F2CF4F;}
	.st5{fill:#FFFFFF;}
	.st6{fill:url(#XMLID_233_);}
	.st7{fill:url(#XMLID_234_);}
	.st8{fill:url(#XMLID_235_);}
	.st9{fill:url(#XMLID_236_);}
	.st10{fill:url(#XMLID_237_);}
	.st11{fill:url(#XMLID_238_);}
	.st12{fill:url(#XMLID_239_);}
	.st13{fill:url(#XMLID_240_);}
	.st14{fill:url(#XMLID_241_);}
	.st15{fill:url(#XMLID_242_);}
	.st16{fill:url(#XMLID_243_);}
	.st17{fill:url(#XMLID_244_);}
	.st18{fill:url(#XMLID_245_);}
	.st19{fill:url(#XMLID_246_);}
	.st20{fill:url(#XMLID_247_);}
	.st21{fill:url(#XMLID_248_);}
	.st22{fill:url(#XMLID_249_);}
	.st23{fill:url(#XMLID_250_);}
	.st24{fill:url(#XMLID_251_);}
	.st25{fill:url(#XMLID_252_);}
	.st26{fill:url(#XMLID_253_);}
	.st27{fill:url(#XMLID_254_);}
	.st28{fill:url(#XMLID_255_);}
	.st29{fill:url(#XMLID_256_);}
	.st30{fill:url(#XMLID_257_);}
	.st31{fill:url(#XMLID_258_);}
	.st32{fill:#4BB1E0;}
	.st33{fill:#CECECE;}
	.st34{fill:url(#XMLID_259_);}
	.st35{fill:url(#XMLID_260_);}
	.st36{fill:url(#XMLID_261_);}
	.st37{fill:url(#XMLID_262_);}
	.st38{fill:url(#XMLID_263_);}
	.st39{fill:url(#XMLID_264_);}
	.st40{fill:url(#XMLID_265_);}
	.st41{fill:url(#XMLID_266_);}
</style>
<g id="XMLID_66_">
	<g id="XMLID_92_">
		<g id="XMLID_104_">
			<path id="XMLID_119_" class="st33" d="M725.8,1738.9c0,7.5-1.1,15.4-2.6,24L701,1874h-46.9l21.8-110c1.1-5.6,1.5-10.9,1.5-15.4
				c0-23.3-12.8-36.4-40.2-36.4c-34.1,0-57.8,18.8-65.7,57.8l-21,103.9h-46.9l39.8-200.4h44.7l-4.5,22.1
				c18.4-16.5,42.4-24.4,69.1-24.4C696.9,1671.4,725.8,1695,725.8,1738.9z"/>
			<path id="XMLID_113_" class="st33" d="M1970.7,1787.7h-159.1c0.7,31.9,19.1,49.2,57.8,49.2c22.9,0,43.9-7.5,57.8-20.6l19.5,32.6
				c-21,18.8-51.4,27.8-82.2,27.8c-60.4,0-98.7-34.9-98.7-88.2c0-67.9,48.4-117.1,115.6-117.1c55.5,0,92.3,33,92.3,87.8
				C1973.7,1769.3,1972.6,1779.1,1970.7,1787.7z M1815.7,1756.6h114.8c0.4-30.8-20.3-47.7-51.4-47.7
				C1847.2,1708.9,1824.3,1727.3,1815.7,1756.6z"/>
			<path id="XMLID_110_" class="st33" d="M2305,1759.2c0,68.3-48.8,117.5-112.6,117.5c-32.7,0-57.4-11.6-70.2-34.5l-6.4,31.9h-44.7
				l55.5-278.5h46.9l-19.1,96.8c16.5-13.5,37.5-21,62.3-21C2266,1671.4,2305,1703.6,2305,1759.2z M2257.7,1761.4
				c0-31.2-19.1-50.3-52.9-50.3c-39.8,0-69.1,30.8-69.1,75.1c0,31.2,19.1,50.3,52.9,50.3C2228.4,1836.5,2257.7,1805.7,2257.7,1761.4
				z"/>
			<path id="XMLID_107_" class="st33" d="M1073.2,1673.6l-39.8,200.4h-44.7l4.1-20.6c-16.9,15-39,23.3-65.3,23.3
				c-49.2,0-88.2-32.7-88.2-88.2c0-68.3,48.8-117.1,113-117.1c31.2,0,54.8,10.5,68.3,31.9l5.6-29.6H1073.2z M1008.7,1761.4
				c0-31.2-19.1-50.3-52.9-50.3c-39.8,0-69.1,30.8-69.1,75.1c0,31.2,19.1,50.3,52.9,50.3C979.4,1836.5,1008.7,1805.7,1008.7,1761.4z
				"/>
			<path id="XMLID_105_" class="st33" d="M1703.6,1673.6L1591.7,1874h-46.2l-27-138.1l-78.4,138.1h-45.4l-36.8-200.4h42.8
				l25.5,147.5l83.7-147.5h40.2l26.6,147.5l82.6-147.5H1703.6z"/>
		</g>
		<g id="XMLID_93_">
			<path id="XMLID_103_" class="st33" d="M888.6,1082.1H519.8c-34.3,0-63.8,24.2-70.6,57.8l-12.8,63.4h135.7l-68.2,342.3H569
				c53,0,98.6-37.4,109-89.4l50.4-252.9h135.7L888.6,1082.1z"/>
			<path id="XMLID_102_" class="st33" d="M1093.1,1052.7h-32.5c-22.6,0-44.3,9.3-59.9,25.7l-65.3,68.7h85l56.1-45.5l43.1,45.5h80.3
				l-36.6-56.4C1147.9,1067,1121.5,1052.7,1093.1,1052.7z"/>
			<path id="XMLID_99_" class="st33" d="M1061,1437.8c-10.8,2.6-21.8,3.9-32.7,3.9c-39.1,0-62.9-11.9-69.5-42.4h253.6
				c4.6-19.2,7.9-40.4,7.9-62.9c0-93.4-68.2-159.6-184.1-159.6c-135.1,0-224.5,88.7-224.5,207.9c0,102.6,80.1,167.5,199.3,167.5
				c54.9,0,108.6-11.3,158.2-45l-24.9-36.2C1126,1444,1092.9,1430.1,1061,1437.8z M1029.7,1278.8c31.8,0,53.6,17.9,53.6,48.3H964.8
				C974.7,1299.3,995.3,1278.8,1029.7,1278.8z"/>
			<path id="XMLID_98_" class="st33" d="M1689.9,1183.4h-163.5l-71.5,76.8l-20.4-40.8c-11-22.1-33.6-36-58.3-36h-116.7l94,177.4
				l-180.8,184.7h168.8l70.8-77.5l13.6,27.5c15.2,30.6,46.4,49.9,80.5,49.9h103.2l-95.3-179.4L1689.9,1183.4z"/>
			<path id="XMLID_97_" class="st33" d="M1876,1203.3l20.5-101.3h-83.9c-38.2,0-71.2,26.9-78.8,64.4l-7.5,36.9
				c-28.9,0-53.7,20.4-59.4,48.7l-12.1,60.6h50.3l-18.5,91.4c-2.6,12.6-4,24.5-4,35.8c0,72.2,51.6,112.6,132.4,112.6
				c35.1,0,70.2-6,98-21.2l-17.2-100.6c-11.2,5.3-21.2,8.6-33.1,8.6c-17.2,0-27.8-7.9-27.8-25.2c0-3.3,0.7-6.6,1.3-10.6l17.9-90.7
				c43.1,0,80.2-30.4,88.7-72.7l7.3-36.5H1876z"/>
			<path id="XMLID_96_" class="st33" d="M2110.3,1171.3c44.4,0,73.4-26.5,73.4-64.8c0-30.6-25-52.5-65.3-52.5
				c-44.4,0-73.4,27-73.4,62.7C2045,1147.3,2070,1171.3,2110.3,1171.3z"/>
			<path id="XMLID_95_" class="st33" d="M2071.6,1202.5c-33,0-61.5,23.3-67.9,55.7l-57.4,287.4h70.2c45.8,0,85.2-32.3,94.2-77.2
				l53.1-265.9H2071.6z"/>
			<path id="XMLID_94_" class="st33" d="M2330.5,1054.3c-41.3,0-76.9,29.2-85,69.7l-84.1,421.5h80.5c40.2,0,74.8-28.4,82.7-67.8
				l84.5-423.5H2330.5z"/>
		</g>
	</g>
	<path id="XMLID_91_" class="st33" d="M383,1294.2c-89.1-45.5-144.4-136.7-144.4-238.1c0-147.1,117.2-266.8,261.3-266.8
		c23.9,0,48.1,3.5,72,10.5l20.8,6.1l2.5-21.6c16.8-144.7,147-253.9,302.9-253.9c168.1,0,304.8,127.8,304.8,284.9
		c0,24.5-3.7,49.6-10.9,74.6l-7,24.2l25.1-0.8c1.7-0.1,3.4-0.3,5.6-0.6c93.3,0,173.5,64.8,195,157.5c4.7,20.1,22.5,34.2,43.4,34.2
		c17.2,0,33.1-7.9,43.6-21.6c10.4-13.6,13.8-30.9,9.3-47.3c-27.7-100.8-104.5-180.5-202.4-211c0.1-3,0.1-6.1,0.1-9.1
		c0-193-154.1-358.3-353.8-383.2v-23.8c89.5-20.2,142.3-86.4,142.3-179.7c0-106.1-76.1-186.2-177-186.2c-104.6,0-193,86.8-193,189.6
		c0,19.4,10.4,37.8,27.2,48c16.7,10.2,37.2,10.9,54.9,1.8c19-9.8,30.8-28.9,30.8-49.8c0-41,37.8-77,81-77
		c38.5,0,65.4,30.3,65.4,73.6c0,43.3-34,73.6-82.7,73.6c-30.8,0-55,24.7-55,56.3v73.6c-152.9,18.9-280.2,117.3-330.6,255.7
		c-4.8-0.2-9.5-0.3-14.3-0.3c-200.2,0-363.1,165.3-363.1,368.5c0,141,82.2,271.5,209.4,332.5c6.4,3.1,13.2,4.6,20.1,4.6
		c7.1,0,14.3-1.7,20.9-5c13.2-6.6,22.5-18.6,25.5-33.1C417.7,1330.8,405.5,1305.7,383,1294.2z"/>
</g>
</svg>
