<svg id="Camada_1" data-name="Camada 1" xmlns="http://www.w3.org/2000/svg" viewBox="0 0 2000 2000"><defs><style>.cls-1{fill:#e9bc43;}</style></defs><title>tnw_vetor</title><path class="cls-1" d="M360.44,1841.3c-129.73-66.25-210.33-199.1-210.33-346.73,0-214.2,170.72-388.46,380.55-388.46a373.23,373.23,0,0,1,104.83,15.3l30.34,8.86,3.63-31.39c24.42-210.75,214-369.67,441.06-369.67,244.73,0,443.82,186.08,443.82,414.81a390.26,390.26,0,0,1-15.94,108.66l-10.21,35.18,36.62-1.1a60.45,60.45,0,0,0,8.15-.91c135.83,0,252.62,94.3,284,229.34a64.4,64.4,0,0,0,63.16,49.8,79.69,79.69,0,0,0,77-100.4c-40.34-146.84-152.24-262.8-294.77-307.29.11-4.44.16-8.86.16-13.29,0-281.11-224.41-521.79-515.28-558V551.3c130.28-29.46,207.28-125.84,207.28-261.69,0-154.57-110.82-271.14-257.79-271.14-152.36,0-281.08,126.41-281.08,276,0,28.21,15.19,55,39.65,70,24.29,14.84,54.19,15.8,80,2.6,27.7-14.24,44.92-42,44.92-72.57,0-59.74,55.1-112.14,117.92-112.14,56.12,0,95.31,44.1,95.31,107.23S1183.9,396.82,1113,396.82c-44.88,0-80,36-80,81.95V585.92C810.2,613.47,624.84,756.76,551.46,958.34q-10.41-.42-20.78-.42c-291.57,0-528.77,240.75-528.77,536.67,0,205.36,119.66,395.4,304.86,484.15a67.69,67.69,0,0,0,29.27,6.68A69.42,69.42,0,0,0,403.68,1930C411,1894.51,393.2,1858,360.44,1841.3Z"/></svg>